# xmcd CD database file
#
# Track frame offsets:
#	150
#	18711
#	37069
#	40393
#	69471
#	93186
#	119493
#	135365
#	154416
#	178560
#	197482
#	220214
#	245948
#	280855
#
# Disc length: 3991 seconds
#
# Revision: 2
# Processed by: cddbd v1.5.2PL0 Copyright (c) Steve Scherf et al.
# Submitted via: CDex 1.70beta2
#
DISCID=d00f950e
DTITLE=Willy Michl - Willy Michl - LIVE 76 (2007)
DYEAR=2007
DGENRE=Blues
TTITLE0=Sitz di her
TTITLE1=Schwabing
TTITLE2=Vorstellung der Musiker
TTITLE3=Fuchsblues
TTITLE4=Indianer
TTITLE5=Ich lieb' nur dich
TTITLE6=Das Haus am Niklassee
TTITLE7=Telephon-Blues
TTITLE8=Orang Utan
TTITLE9=Morgenstund
TTITLE10=Blütental
TTITLE11=Die Trud
TTITLE12=Feeling Allright
TTITLE13=Abschied
EXTD=Heritage Edition YEAR: 2007
EXTT0=
EXTT1=
EXTT2=
EXTT3=
EXTT4=
EXTT5=
EXTT6=
EXTT7=
EXTT8=
EXTT9=
EXTT10=
EXTT11=
EXTT12=
EXTT13=
PLAYORDER=
